<?xml version="1.0" encoding="UTF-8"?>
<svg xmlns="http://www.w3.org/2000/svg" xmlns:xlink="http://www.w3.org/1999/xlink" viewBox="0 0 64 64" width="64px" height="64px">
<g id="surface223801395">
<path style=" stroke:none;fill-rule:nonzero;fill:rgb(40.392157%,29.411766%,68.627453%);fill-opacity:1;" d="M 32 64 C 14.328125 64 0 49.671875 0 32 C 0 14.328125 14.328125 0 32 0 C 49.671875 0 64 14.328125 64 32 C 64 49.671875 49.671875 64 32 64 Z M 32 64 "/>
<path style=" stroke:none;fill-rule:nonzero;fill:rgb(100%,100%,100%);fill-opacity:1;" d="M 33.519531 53.148438 C 32.839844 53.148438 32.320312 52.589844 32.320312 51.949219 C 32.320312 51.589844 32.320312 43.714844 32.320312 37.039062 C 32.320312 36.359375 32.839844 35.839844 33.519531 35.839844 L 36.636719 35.839844 L 36.917969 32.960938 L 33.519531 32.960938 C 32.839844 32.960938 32.320312 32.441406 32.320312 31.761719 L 32.320312 28.640625 C 32.320312 26.84375 33.640625 26.003906 34.839844 26.003906 L 36.996094 26.003906 L 36.996094 23.242188 L 33.597656 23.242188 C 29 23.242188 28.523438 26.800781 28.523438 28.320312 L 28.523438 31.761719 C 28.523438 32.441406 28 32.960938 27.320312 32.960938 L 24.5625 32.960938 L 24.5625 35.839844 L 27.320312 35.839844 C 28 35.839844 28.523438 36.359375 28.523438 37.039062 L 28.523438 51.472656 C 28.523438 52.152344 28 52.671875 27.320312 52.671875 C 26.640625 52.671875 26.121094 52.152344 26.121094 51.472656 L 26.121094 38.238281 L 23.363281 38.238281 C 22.683594 38.238281 22.164062 37.71875 22.164062 37.039062 L 22.164062 31.71875 C 22.164062 31.039062 22.683594 30.519531 23.363281 30.519531 L 26.121094 30.519531 L 26.121094 28.28125 C 26.121094 24.84375 28.082031 20.804688 33.597656 20.804688 L 38.195312 20.804688 C 38.875 20.804688 39.398438 21.324219 39.398438 22.003906 L 39.398438 27.203125 C 39.398438 27.882812 38.875 28.402344 38.195312 28.402344 L 34.839844 28.402344 C 34.796875 28.402344 34.757812 28.402344 34.757812 28.402344 C 34.757812 28.441406 34.71875 28.523438 34.71875 28.640625 L 34.71875 30.5625 L 38.277344 30.5625 C 38.597656 30.5625 38.957031 30.71875 39.15625 30.960938 C 39.398438 31.199219 39.476562 31.558594 39.476562 31.878906 L 38.917969 37.15625 C 38.835938 37.757812 38.355469 38.238281 37.71875 38.238281 L 34.71875 38.238281 C 34.71875 41.316406 34.71875 44.515625 34.71875 47.074219 L 34.71875 51.628906 C 34.71875 51.710938 34.71875 51.789062 34.71875 51.871094 C 34.71875 51.910156 34.71875 51.949219 34.71875 51.992188 C 34.597656 52.949219 34 53.148438 33.519531 53.148438 Z M 33.519531 53.148438 "/>
<path style=" stroke:none;fill-rule:nonzero;fill:rgb(100%,100%,100%);fill-opacity:1;" d="M 33.519531 53.148438 C 32.878906 53.148438 32.359375 52.671875 32.320312 52.03125 C 32.28125 51.351562 32.757812 50.792969 33.4375 50.75 C 43.195312 50.03125 50.792969 41.796875 50.792969 32 C 50.792969 21.644531 42.355469 13.207031 32 13.207031 C 21.644531 13.207031 13.207031 21.644531 13.207031 32 C 13.207031 40.714844 19.125 48.230469 27.5625 50.269531 C 28.203125 50.429688 28.601562 51.070312 28.441406 51.710938 C 28.28125 52.351562 27.640625 52.75 27.003906 52.589844 C 17.488281 50.3125 10.808594 41.835938 10.808594 32.039062 C 10.808594 20.367188 20.324219 10.851562 32 10.851562 C 43.675781 10.851562 53.191406 20.367188 53.191406 32.039062 C 53.191406 43.074219 44.59375 52.351562 33.597656 53.148438 C 33.558594 53.148438 33.558594 53.148438 33.519531 53.148438 Z M 33.519531 53.148438 "/>
</g>
</svg>
